<?xml version="1.0" standalone="no"?>
<!DOCTYPE svg PUBLIC "-//W3C//DTD SVG 20010904//EN"
 "http://www.w3.org/TR/2001/REC-SVG-20010904/DTD/svg10.dtd">
<svg version="1.0" xmlns="http://www.w3.org/2000/svg"
 width="1000.000000pt" height="1000.000000pt" viewBox="0 0 1000.000000 1000.000000"
 preserveAspectRatio="xMidYMid meet">
<metadata>
Created by potrace 1.11, written by Peter Selinger 2001-2013
</metadata>
<g transform="translate(0.000000,1000.000000) scale(0.100000,-0.100000)"
fill="#000000" stroke="none">
<path d="M3005 5398 c-39 -21 -75 -62 -75 -85 0 -13 11 -41 25 -63 14 -22 25
-43 25 -48 0 -13 -240 -33 -261 -22 -25 14 -112 12 -131 -2 -11 -9 -22 -48
-32 -114 -9 -56 -16 -106 -16 -112 0 -6 28 -30 63 -52 57 -38 66 -41 110 -35
42 5 47 4 47 -14 0 -16 -9 -21 -47 -26 -27 -3 -55 -10 -63 -14 -45 -25 -21
-171 29 -171 9 0 22 -9 29 -20 7 -11 21 -20 31 -20 15 0 19 -10 24 -56 7 -67
22 -93 81 -132 51 -35 104 -52 159 -52 l39 0 -7 -39 c-6 -39 -6 -39 51 -77 46
-31 69 -39 116 -42 34 -3 64 0 70 6 6 6 18 43 27 84 l17 73 59 8 c33 5 78 14
100 20 39 12 40 13 43 62 2 28 -2 67 -8 88 -9 29 -16 37 -35 37 -15 0 -26 7
-30 20 -5 15 -15 20 -42 20 -57 0 -34 24 33 33 110 15 109 14 112 86 3 69 -14
111 -46 111 -9 0 -23 9 -30 21 -13 20 -12 21 26 14 26 -4 52 -1 76 9 l36 15 0
101 c0 114 -15 164 -52 175 -12 4 -33 16 -45 28 -21 19 -31 20 -150 14 l-128
-7 -50 70 c-27 39 -58 73 -70 76 -11 4 -28 15 -38 25 -20 21 -43 24 -72 7z
m95 -85 c28 -37 49 -71 47 -77 -2 -6 -19 -22 -38 -35 l-34 -23 90 7 c50 3 137
10 195 15 66 5 111 5 123 -1 28 -15 37 -52 37 -145 0 -81 -1 -85 -25 -94 -14
-5 -42 -6 -63 -2 -34 7 -37 11 -43 49 -7 56 -24 73 -69 73 -20 0 -153 -12
-295 -26 -141 -14 -263 -23 -271 -20 -9 4 -14 22 -14 55 0 57 -14 52 185 72
61 6 111 12 112 13 1 1 -16 29 -37 61 -22 33 -40 67 -40 76 0 23 49 65 82 68
4 1 30 -29 58 -66z m-398 -258 c-1 -55 -7 -104 -12 -109 -13 -13 -97 -13 -110
0 -7 7 -7 34 0 90 18 133 13 125 73 122 l52 -3 -3 -100z m658 -64 c0 -17 -3
-18 -30 -8 -16 6 -30 15 -30 19 0 4 14 8 30 8 23 0 30 -5 30 -19z m-176 -2
c-4 -7 -12 -37 -18 -68 l-11 -56 -67 -3 -68 -3 0 31 c0 25 -5 33 -29 41 -30
11 -50 39 -28 40 9 0 166 20 220 28 5 0 5 -4 1 -10z m139 -31 c14 -11 15 -19
7 -48 -16 -56 -15 -57 58 -56 l67 1 0 -60 c0 -46 -4 -60 -15 -62 -8 -1 -45 -5
-82 -8 l-66 -6 -17 -70 c-10 -39 -16 -72 -13 -74 2 -2 21 0 43 5 22 5 57 10
77 10 34 0 38 -3 43 -33 4 -19 5 -47 3 -63 -3 -28 -5 -29 -95 -44 -50 -8 -95
-19 -100 -23 -4 -5 -15 -41 -24 -80 l-15 -72 -57 0 c-74 1 -80 7 -66 78 7 32
10 59 8 61 -2 2 -53 9 -113 15 -63 6 -119 17 -132 26 -27 17 -41 62 -50 159
l-6 69 -54 -6 -54 -6 -10 40 c-17 63 -9 74 63 85 l62 9 5 70 5 70 40 8 c25 6
51 5 69 -2 28 -11 28 -12 22 -71 l-7 -60 48 1 c104 1 204 15 213 28 4 8 11 35
15 60 4 25 9 49 12 54 7 12 98 8 116 -5z m122 -58 c3 -5 1 -10 -4 -10 -6 0
-11 5 -11 10 0 6 2 10 4 10 3 0 8 -4 11 -10z"/>
<path d="M3030 4703 c-109 -5 -110 -6 -110 -66 0 -77 5 -81 108 -85 l89 -4 12
64 c7 34 14 71 17 81 4 14 0 17 -23 15 -15 -1 -57 -3 -93 -5z m68 -95 c-2 -19
-10 -24 -45 -26 -40 -3 -43 -1 -43 22 0 24 3 26 46 26 41 0 45 -2 42 -22z"/>
<path d="M6430 5287 c-34 -17 -38 -55 -39 -373 -1 -285 7 -356 43 -392 l23
-24 -29 -69 c-39 -94 -35 -116 27 -157 96 -63 167 -67 187 -12 11 34 20 37 38
15 7 -8 17 -15 22 -15 5 0 21 -9 35 -20 29 -23 83 -35 118 -26 20 5 28 20 50
87 23 75 24 84 10 105 -8 13 -29 31 -45 39 -38 20 -32 31 23 40 67 10 77 15
77 36 0 24 22 25 44 0 16 -17 15 -19 -12 -24 -52 -11 -62 -30 -62 -122 l0 -84
55 -37 c51 -33 61 -36 107 -32 69 7 88 30 89 112 1 33 4 50 6 36 13 -72 24
-100 43 -100 10 0 26 -10 35 -22 12 -18 25 -23 58 -23 46 1 116 30 124 53 7
17 -25 161 -39 180 -6 6 -18 12 -28 12 -18 0 -34 23 -23 34 4 3 16 6 28 6 33
0 47 24 48 77 1 57 -16 93 -43 93 -11 0 -24 10 -31 21 -10 20 -16 21 -88 16
-42 -4 -86 -10 -98 -13 -21 -6 -23 -3 -23 29 0 63 4 66 78 59 131 -11 193 -8
206 10 7 10 18 89 26 189 l13 172 -29 24 c-16 13 -39 32 -51 43 -30 24 -140
36 -218 23 -35 -6 -67 -7 -77 -2 -20 11 -99 12 -115 1 -6 -4 -15 -23 -20 -42
-9 -32 -10 -33 -17 -12 -4 12 -14 22 -21 22 -8 0 -25 10 -39 23 -21 20 -43 25
-161 36 -100 10 -139 10 -149 2 -10 -8 -21 -7 -42 4 -35 18 -80 19 -114 2z
m100 -27 c18 -10 19 -23 13 -303 -6 -339 -8 -331 72 -319 l50 7 3 63 3 62 -39
0 c-22 0 -44 6 -50 13 -14 17 -25 175 -14 212 9 33 27 40 79 30 l34 -6 -7 -44
c-3 -25 -3 -60 0 -79 6 -33 9 -35 54 -38 l47 -3 3 -94 3 -93 44 6 44 7 10 -37
c21 -75 15 -79 -133 -103 -162 -26 -268 -28 -290 -5 -31 31 -37 103 -36 428 0
190 4 283 11 293 13 15 72 17 99 3z m289 -19 c41 -5 46 -9 49 -35 7 -56 -5
-76 -43 -76 -35 0 -35 0 -35 -45 l0 -45 39 0 c58 0 65 -15 66 -138 0 -106 0
-106 -26 -116 -14 -5 -38 -6 -52 -2 -25 6 -26 10 -29 84 l-3 77 -46 3 -46 3
-7 52 c-3 29 -6 73 -6 100 0 45 -1 47 -29 47 -49 0 -61 9 -61 45 0 66 3 68 98
60 46 -4 105 -10 131 -14z m277 -17 c27 -5 27 -6 21 -72 -4 -37 -9 -91 -13
-119 l-7 -53 30 0 c17 0 45 -3 62 -6 27 -6 31 -10 31 -41 0 -63 -13 -73 -79
-67 l-58 7 -6 -33 c-10 -46 -8 -142 2 -158 7 -11 29 -12 124 -2 64 7 124 10
132 6 11 -4 15 -20 15 -54 0 -49 0 -49 -37 -56 -21 -3 -99 -9 -173 -12 -126
-6 -137 -5 -160 14 -23 19 -25 27 -28 127 -4 120 42 515 62 527 6 4 21 5 33 3
13 -3 35 -7 49 -11z m280 -15 c14 -15 14 -33 3 -174 -9 -105 -18 -162 -27
-171 -13 -13 -83 -20 -93 -9 -3 2 1 56 9 119 8 62 12 121 9 131 -6 13 -18 16
-64 14 l-58 -3 -3 43 c-5 73 -5 74 108 69 74 -3 104 -8 116 -19z m-429 -186
c-7 -7 -47 16 -47 27 0 5 10 10 23 12 15 2 23 -3 25 -15 2 -10 1 -21 -1 -24z
m303 20 c0 -5 -3 -18 -6 -29 -8 -30 -44 -20 -44 12 0 19 5 24 25 24 14 0 25
-3 25 -7z m-613 -365 c-3 -7 -5 -2 -5 12 0 14 2 19 5 13 2 -7 2 -19 0 -25z
m283 7 c0 -31 -10 -31 -33 0 -18 25 -18 25 8 25 20 0 25 -5 25 -25z m288 -206
c-11 -6 -18 -22 -18 -41 0 -28 -1 -30 -13 -14 -7 9 -23 22 -36 29 -47 23 -37
37 26 37 44 -1 54 -3 41 -11z m-652 -15 c19 -9 34 -21 34 -27 0 -6 -10 -41
-22 -79 -20 -63 -24 -68 -50 -68 -40 0 -88 27 -88 49 0 10 7 36 16 57 9 22 20
49 25 62 10 26 37 28 85 6z m794 -41 c6 -32 14 -66 16 -75 9 -30 -83 -69 -115
-49 -13 9 -29 77 -30 133 -1 29 29 46 86 47 31 1 32 -1 43 -56z m-542 27 c36
-22 36 -16 2 -115 -17 -50 -18 -50 -59 -49 -28 1 -49 8 -62 21 -20 19 -20 20
7 91 23 64 29 72 53 72 14 0 41 -9 59 -20z m280 -67 l3 -82 -36 -7 c-19 -3
-46 -3 -60 0 -24 6 -25 9 -25 85 0 89 1 90 75 88 l40 -2 3 -82z m-404 52 c-5
-12 -10 -13 -20 -4 -19 15 -18 19 6 19 13 0 18 -5 14 -15z"/>
<path d="M4660 5274 c-185 -16 -196 -21 -185 -84 10 -52 28 -84 49 -88 11 -2
27 -13 36 -24 15 -19 21 -20 140 -9 69 5 174 13 234 17 l110 7 -31 -39 c-17
-22 -51 -58 -76 -81 -56 -53 -62 -70 -43 -128 9 -25 16 -50 16 -54 0 -5 -39
-12 -87 -15 -169 -13 -297 -27 -314 -37 -25 -13 -32 -58 -17 -105 10 -31 19
-40 39 -42 17 -2 29 -11 32 -23 5 -17 14 -19 89 -18 45 1 127 4 181 8 l97 6 6
-33 c4 -19 4 -79 2 -133 l-5 -100 54 -36 c70 -46 140 -56 172 -24 20 20 21 31
21 181 l0 160 118 0 c64 0 141 3 170 6 49 6 53 9 63 43 16 53 1 102 -38 122
-17 8 -39 24 -49 34 -17 16 -31 17 -156 11 -122 -6 -139 -5 -144 9 -4 10 4 28
23 48 38 41 83 108 117 174 27 54 33 111 16 143 -11 21 -99 82 -145 101 -45
18 -306 20 -495 3z m461 -25 c65 -14 99 -46 99 -91 0 -39 -66 -155 -134 -238
-25 -30 -44 -59 -41 -65 2 -5 10 -30 17 -53 l13 -44 177 7 176 7 10 -36 c17
-59 8 -73 -51 -80 -29 -3 -107 -6 -174 -6 l-123 0 0 -168 c0 -117 -4 -172 -12
-180 -13 -13 -87 -16 -103 -4 -6 4 -11 75 -11 170 -1 90 -4 165 -7 168 -2 2
-99 -1 -216 -7 -116 -7 -214 -9 -217 -7 -10 11 -14 73 -6 86 9 13 91 23 323
40 l107 7 -19 74 -19 75 65 63 c75 73 105 117 105 155 0 25 -3 27 -62 33 -35
4 -160 0 -278 -8 -155 -10 -217 -11 -222 -3 -11 16 -21 76 -14 83 10 10 290
30 433 32 73 0 155 -4 184 -10z"/>
</g>
</svg>
